<svg width="27" height="27" viewBox="0 0 27 27" fill="none" xmlns="http://www.w3.org/2000/svg">
  <path opacity="0.4" d="M20.212 7.37784L18.1533 5.31909C16.4152 3.58097 15.5467 2.71134 14.4183 2.38847C13.2899 2.06447 12.0918 2.34122 9.69665 2.89472L8.31515 3.21309C6.29915 3.67772 5.29115 3.91059 4.6004 4.60022C3.91078 5.29097 3.6779 6.29897 3.21328 8.31497L2.89378 9.69647C2.3414 12.0927 2.06465 13.2897 2.38753 14.4181C2.71153 15.5465 3.58115 16.415 5.31928 18.1531L7.37803 20.2118C10.4043 23.2392 11.9163 24.7501 13.795 24.7501C15.6749 24.7501 17.1869 23.237 20.212 20.2118C23.2394 17.1867 24.7503 15.6747 24.7503 13.7948C24.7503 11.9161 23.2372 10.403 20.212 7.37784Z" fill="#E43030"/>
  <text x="50%" y="50%" font-size="14" fill="#fff" font-family="Arial, sans-serif" text-anchor="middle" dy=".3em">AD</text>
</svg>
